<svg width="144" height="289" viewBox="0 0 144 289" fill="none" xmlns="http://www.w3.org/2000/svg">
<path d="M67.6407 285.708C67.6407 239.559 64.4808 193.539 64.4808 147.491C64.4808 131.581 64.4808 115.671 64.4808 99.7629C64.4808 94.4034 64.4808 89.0439 64.4808 83.6864C64.4808 81.9899 64.4808 75.8146 64.4808 77.0241" fill="#D8D8D8"/>
<path d="M67.6407 285.708C67.6407 239.559 64.4808 193.539 64.4808 147.491C64.4808 131.581 64.4808 115.671 64.4808 99.7629C64.4808 94.4034 64.4808 89.0439 64.4808 83.6864C64.4808 81.9899 64.4808 75.8146 64.4808 77.0241" stroke="#883C00"/>
<path d="M88.3377 287.985C88.3377 218.21 87.9664 146.442 87.9664 77.6674L88.3377 287.985Z" fill="#D8D8D8"/>
<path d="M88.3377 287.985C88.3377 218.21 87.9664 146.442 87.9664 77.6674" stroke="#883C00"/>
<path d="M5.28113 173.477C12.9942 173.434 21.5333 167.665 27.4881 163.32C39.8628 154.29 52.1458 145.253 63.2294 134.735C67.6283 130.56 73.9981 125.643 77.1747 120.472C78.3845 118.502 80.0135 116.515 81.4651 114.693C82.1472 113.838 82.9981 110.73 82.9981 111.811C82.9981 129.375 92.3256 145.565 106.11 156.95C111.894 161.727 118.448 168.86 125.055 172.393C126.484 173.159 140.07 176.278 140.07 178.171" fill="#51A654"/>
<path d="M5.28113 173.477C12.9942 173.434 21.5333 167.665 27.4881 163.32C39.8628 154.29 52.1458 145.253 63.2294 134.735C67.6283 130.56 73.9981 125.643 77.1747 120.472C78.3845 118.502 80.0135 116.515 81.4651 114.693C82.1472 113.838 82.9981 110.73 82.9981 111.811C82.9981 129.375 92.3256 145.565 106.11 156.95C111.894 161.727 118.448 168.86 125.055 172.393C126.484 173.159 140.07 176.278 140.07 178.171" stroke="#51A654"/>
<path d="M19.7854 134.11C25.1333 128.45 31.9203 123.898 37.1722 118.037C47.409 106.612 54.2628 94.0787 61.7089 80.9346C65.7136 73.8663 67.793 65.8078 72.8176 59.2976C74.384 57.2723 75.4623 55.176 76.6241 52.9255C77.2039 51.8032 77.9486 48.4934 78.5013 49.6278C79.3981 51.4664 78.1634 54.6038 78.9247 56.6372C84.5708 71.7335 88.1479 89.8779 99.2983 102.277C107.381 111.265 117.248 119.827 127.917 125.822C129.613 126.776 139.126 131.049 139.126 132.821" fill="#51A654"/>
<path d="M19.7854 134.11C25.1333 128.45 31.9203 123.898 37.1722 118.037C47.409 106.612 54.2628 94.0787 61.7089 80.9346C65.7136 73.8663 67.7931 65.8078 72.8176 59.2976C74.384 57.2723 75.4623 55.176 76.6241 52.9255C77.2039 51.8032 77.9486 48.4934 78.5013 49.6278C79.3981 51.4664 78.1634 54.6038 78.9247 56.6372C84.5708 71.7335 88.1479 89.8779 99.2983 102.277C107.381 111.265 117.248 119.827 127.917 125.822C129.613 126.776 139.126 131.049 139.126 132.821" stroke="#51A654"/>
<path d="M7.9696 89.3787C11.9596 88.6177 15.4825 86.2941 18.8426 84.1126C27.5715 78.4446 46.3348 67.1147 46.3348 55.3526C46.3348 54.4719 46.2639 57.1466 45.926 57.9644C45.6862 58.5468 42.691 61.5827 43.2855 59.4255C44.2241 56.0101 47.895 53.1508 49.6157 50.127C51.7703 46.3443 51.0444 40.8468 52.3418 36.8328C53.7246 32.559 56.3735 27.9462 57.1703 23.5547C57.2058 23.3579 54.438 30.2962 53.7079 28.5692C52.8945 26.6454 54.7154 23.5466 55.4975 21.7892C57.6959 16.8355 62.2345 10.0859 66.5937 6.40872C68.3812 4.89888 68.8692 0.365306 71.1156 1.08573C71.1719 1.10399 71.5119 8.94744 71.5912 9.10573C74.2442 14.4429 77.2686 19.4595 80.8102 24.3644C82.4767 26.6738 84.4978 28.7722 86.1935 31.0532C86.9986 32.1328 88.3585 35.7897 88.3585 34.4564C88.3585 32.9871 87.1404 28.7417 87.1404 30.211C87.1404 36.9768 95.7191 47.5173 100.22 52.6333C101.966 54.62 102.913 57.3617 104.571 59.4885C105.468 60.6432 108.058 64.0281 106.803 63.2509C106.552 63.0966 102.32 57.9989 102.558 57.8386C102.796 57.6783 105.837 57.3414 106.066 57.7574C106.851 59.1759 106.331 60.7466 106.692 62.2037C108.146 68.0665 116.541 74.7106 121.201 78.1179C122.967 79.4106 125.341 80.3279 126.936 81.7667C127.393 82.1786 129.834 84.2668 129.834 83.6763" fill="#51A654"/>
<path d="M7.9696 89.3787C11.9596 88.6177 15.4825 86.2941 18.8426 84.1126C27.5715 78.4446 46.3348 67.1147 46.3348 55.3526C46.3348 54.4719 46.2639 57.1466 45.926 57.9644C45.6862 58.5468 42.691 61.5827 43.2855 59.4255C44.2241 56.0101 47.895 53.1508 49.6157 50.127C51.7703 46.3443 51.0444 40.8468 52.3418 36.8328C53.7246 32.559 56.3735 27.9462 57.1703 23.5547C57.2058 23.3579 54.438 30.2962 53.7079 28.5692C52.8945 26.6454 54.7154 23.5466 55.4975 21.7892C57.6959 16.8355 62.2345 10.0859 66.5937 6.40872C68.3812 4.89888 68.8692 0.365306 71.1156 1.08573C71.1719 1.10399 71.5119 8.94744 71.5912 9.10573C74.2442 14.4429 77.2686 19.4595 80.8102 24.3644C82.4767 26.6738 84.4978 28.7722 86.1935 31.0532C86.9986 32.1328 88.3585 35.7897 88.3585 34.4564C88.3585 32.9871 87.1404 28.7417 87.1404 30.211C87.1404 36.9769 95.7191 47.5173 100.22 52.6333C101.966 54.62 102.913 57.3617 104.571 59.4885C105.468 60.6432 108.058 64.0281 106.803 63.2508C106.552 63.0966 102.32 57.9989 102.558 57.8386C102.796 57.6783 105.837 57.3414 106.066 57.7574C106.851 59.1759 106.331 60.7466 106.692 62.2037C108.146 68.0665 116.541 74.7106 121.201 78.1179C122.967 79.4106 125.341 80.3279 126.936 81.7667C127.393 82.1786 129.834 84.2668 129.834 83.6763" stroke="#51A654"/>
<path d="M18.778 132.939C14.3124 135.039 6.39281 141.84 1.2723 141.84C0.129306 141.84 3.4081 141.001 4.36755 140.397C6.19883 139.242 7.51494 137.164 9.90729 137.081C14.6106 136.916 26.4056 129.213 27.7071 124.529C27.8385 124.058 28.5601 116.217 30.5958 117.295C31.0922 117.558 30.4477 120.363 30.1891 120.667C29.8324 121.085 28.0721 121.276 28.6311 121.276C30.0723 121.276 39.1891 114.896 40.3008 113.717C44.8707 108.871 39.6709 107.582 41.8693 104.627C42.6473 103.582 43.8737 102.689 44.466 101.543C44.758 100.972 51.4888 95.4262 51.4888 96.0614C51.4888 97.0801 45.3316 102.478 44.7706 103.308C44.4514 103.779 50.6002 93.7094 50.9444 93.2548C54.9657 87.8994 50.1351 91.0489 55.0137 86.3002" fill="#51A654"/>
<path d="M18.778 132.939C14.3124 135.039 6.39281 141.84 1.2723 141.84C0.129307 141.84 3.4081 141.001 4.36755 140.397C6.19883 139.242 7.51494 137.164 9.90729 137.081C14.6106 136.916 26.4056 129.213 27.7071 124.529C27.8385 124.058 28.5601 116.217 30.5958 117.295C31.0922 117.558 30.4477 120.363 30.1891 120.667C29.8324 121.085 28.0721 121.276 28.6311 121.276C30.0723 121.276 39.1891 114.896 40.3008 113.717C44.8707 108.871 39.6709 107.582 41.8693 104.627C42.6473 103.582 43.8737 102.689 44.466 101.543C44.758 100.972 51.4888 95.4262 51.4888 96.0614C51.4888 97.0801 45.3316 102.478 44.7706 103.308C44.4514 103.779 50.6002 93.7094 50.9444 93.2548C54.9657 87.8994 50.1351 91.0489 55.0137 86.3002" stroke="#51A654"/>
<path d="M8.34924 87.5097C15.664 87.5097 26.5599 91.6456 34.1416 89.2367C42.1905 86.6777 50.5001 86.5539 59.1101 86.5539" fill="#51A654"/>
<path d="M8.34924 87.5097C15.664 87.5097 26.5599 91.6456 34.1416 89.2367C42.1905 86.6777 50.5001 86.5539 59.1101 86.5539" stroke="#51A654"/>
<path d="M56.5571 76.1718C48.1328 76.1718 109.135 88.5873 100.345 85.6651C97.5837 84.7478 94.2278 83.9543 91.3182 83.9543C90.4526 83.9543 85.3508 83.3374 87.6681 83.3374C87.6681 82.6434 89.4201 87.2764 89.8394 88.1186C90.6799 89.809 96.8475 101.133 98.2762 100.796C98.5495 100.733 94.3091 91.3959 94.5427 90.5903C94.7826 89.7664 95.3311 92.2117 96.0549 92.6988C97.6776 93.7885 97.3543 96.8488 98.8185 98.3079C104.039 103.513 106.198 109.766 110.555 115.137C111.393 116.17 109.735 112.625 109.241 111.399C108.215 108.857 106.488 107.038 106.559 104.152C106.584 103.115 108.171 105.559 108.722 106.448C109.765 108.126 111.26 109.553 112.511 111.121C116.038 115.549 120.986 119.774 125.42 123.324C126.448 124.146 124.198 121.027 123.583 119.88C122.527 117.92 119.186 118.555 118.529 115.728C118.181 114.224 121.47 117.043 122.581 118.143C124.646 120.182 126.609 123.423 129.233 124.801C131.164 125.816 143.545 131.045 142.934 133.515C142.736 134.311 141.572 132.557 140.901 132.066C139.301 130.899 137.87 129.805 135.936 129.245" fill="#51A654"/>
<path d="M56.5571 76.1718C48.1328 76.1718 109.135 88.5873 100.345 85.6651C97.5837 84.7478 94.2278 83.9543 91.3182 83.9543C90.4526 83.9543 85.3508 83.3374 87.6681 83.3374C87.6681 82.6434 89.4201 87.2764 89.8394 88.1186C90.6799 89.809 96.8475 101.133 98.2762 100.796C98.5495 100.733 94.3091 91.3959 94.5427 90.5903C94.7826 89.7664 95.3311 92.2117 96.0549 92.6988C97.6776 93.7885 97.3543 96.8488 98.8185 98.3079C104.039 103.513 106.198 109.766 110.555 115.137C111.393 116.17 109.735 112.625 109.241 111.399C108.215 108.857 106.488 107.038 106.559 104.152C106.584 103.115 108.171 105.559 108.722 106.448C109.765 108.126 111.26 109.553 112.511 111.121C116.038 115.549 120.986 119.774 125.42 123.324C126.448 124.146 124.198 121.027 123.583 119.88C122.527 117.92 119.186 118.555 118.529 115.728C118.181 114.224 121.47 117.043 122.581 118.143C124.646 120.182 126.609 123.423 129.233 124.801C131.164 125.816 143.545 131.045 142.934 133.515C142.736 134.311 141.572 132.557 140.901 132.066C139.301 130.899 137.87 129.805 135.936 129.245" stroke="#51A654"/>
<path d="M142.49 132.297C131.07 133.158 123.474 135.244 111.888 134.743C104.273 134.414 96.0904 135.654 88.8904 133.807C85.7722 133.008 83.0878 130.359 79.7694 130.359" fill="#51A654"/>
<path d="M142.49 132.297C131.07 133.158 123.474 135.244 111.888 134.743C104.273 134.414 96.0904 135.654 88.8904 133.807C85.7722 133.008 83.0878 130.359 79.7694 130.359" stroke="#51A654"/>
<path d="M1.20349 142.349C12.3184 142.349 11.2464 134.93 22.1882 133.734C31.3676 132.732 54.6508 134.002 63.0563 134.002" fill="#51A654"/>
<path d="M1.20349 142.349C12.3184 142.349 11.2464 134.93 22.1882 133.734C31.3676 132.732 54.6508 134.002 63.0563 134.002" stroke="#51A654"/>
<path d="M140.546 178.989C140.546 179.21 137.082 179.104 136.641 179.104C131.924 179.104 127.667 178.514 123.057 177.875C115.473 176.819 107.91 175.391 100.5 173.351C95.9069 172.087 87.9789 178.879 83.115 178.715C79.5692 180.998 75.3143 169.356 70.9738 169.857C68.8338 170.102 66.8211 170.788 64.7938 171.198C63.8489 171.391 61.4566 172.684 61.9863 171.898C62.4139 171.267 70.5608 177.343 69.7849 177.343C58.7597 177.343 40.5052 173.591 29.5175 175.691C21.842 177.158 13.1819 174.534 5.52307 174.534" fill="#51A654"/>
<path d="M140.546 178.989C140.546 179.21 137.082 179.104 136.641 179.104C131.924 179.104 127.667 178.514 123.057 177.875C115.473 176.819 107.91 175.391 100.5 173.351C95.9068 172.087 87.9789 178.879 83.115 178.715C79.5692 180.998 75.3143 169.356 70.9738 169.857C68.8338 170.102 66.8211 170.788 64.7938 171.198C63.8489 171.391 61.4566 172.684 61.9863 171.898C62.4139 171.267 70.5608 177.343 69.7849 177.343C58.7597 177.343 40.5052 173.591 29.5175 175.691C21.842 177.158 13.1819 174.534 5.52307 174.534" stroke="#51A654"/>
<path d="M84.3059 176.619H69.3157V287.236H84.3059V176.619Z" fill="#883C00" stroke="#883C00"/>
<path d="M67.7262 181.818H64.364V195.849H67.7262V181.818Z" fill="#883C00" stroke="#883C00"/>
<path d="M72.3712 194.503H66.552V208.534H72.3712V194.503Z" fill="#883C00" stroke="#883C00"/>
<path d="M86.1893 179.033H84.4081V261.608H86.1893V179.033Z" fill="#883C00" stroke="#883C00"/>
<path d="M86.7567 204.277H84.9755V286.851H86.7567V204.277Z" fill="#883C00" stroke="#883C00"/>
<path d="M69.4033 183.936H67.6221V266.511H69.4033V183.936Z" fill="#883C00" stroke="#883C00"/>
<path d="M67.3863 176.992H65.6051V197.068H67.3863V176.992Z" fill="#883C00" stroke="#883C00"/>
</svg>
