<svg width="3000" height="331" viewBox="0 0 3000 331" fill="none" xmlns="http://www.w3.org/2000/svg">
<path d="M3324 230.5C3324 314.171 3130.59 382 2892 382C2653.41 382 2460 314.171 2460 230.5C2460 146.829 2653.41 79 2892 79C3130.59 79 3324 146.829 3324 230.5Z" fill="#6AB06E"/>
<path d="M4020 285C4020 413.682 3797.93 518 3524 518C3250.07 518 3028 413.682 3028 285C3028 156.318 3250.07 52 3524 52C3797.93 52 4020 156.318 4020 285Z" fill="#A0D283"/>
<path d="M4598 290.5C4598 450.939 4375.93 581 4102 581C3828.07 581 3606 450.939 3606 290.5C3606 130.061 3828.07 0 4102 0C4375.93 0 4598 130.061 4598 290.5Z" fill="#93C47A"/>
<path d="M1372 300.5C1372 384.171 1178.59 452 940 452C701.413 452 508 384.171 508 300.5C508 216.829 701.413 149 940 149C1178.59 149 1372 216.829 1372 300.5Z" fill="#6AB06E"/>
<path d="M2068 355C2068 483.682 1845.93 588 1572 588C1298.07 588 1076 483.682 1076 355C1076 226.318 1298.07 122 1572 122C1845.93 122 2068 226.318 2068 355Z" fill="#A0D283"/>
<path d="M2646 360.5C2646 520.939 2423.93 651 2150 651C1876.07 651 1654 520.939 1654 360.5C1654 200.061 1876.07 70 2150 70C2423.93 70 2646 200.061 2646 360.5Z" fill="#93C47A"/>
<path d="M2873 361C2873 454.888 2735.78 531 2566.5 531C2397.22 531 2260 454.888 2260 361C2260 267.112 2397.22 191 2566.5 191C2735.78 191 2873 267.112 2873 361Z" fill="#6A986C"/>
<path d="M702 450.5C702 647.39 460.01 807 161.5 807C-137.01 807 -379 647.39 -379 450.5C-379 253.61 -137.01 94 161.5 94C460.01 94 702 253.61 702 450.5Z" fill="#6A986C"/>
</svg>
