<svg width="1728" height="300" viewBox="0 0 1728 300" fill="none" xmlns="http://www.w3.org/2000/svg">
<path d="M698 230.5C698 314.171 504.587 382 266 382C27.413 382 -166 314.171 -166 230.5C-166 146.829 27.413 79 266 79C504.587 79 698 146.829 698 230.5Z" fill="#6AB06E"/>
<path d="M1394 285C1394 413.682 1171.93 518 898 518C624.067 518 402 413.682 402 285C402 156.318 624.067 52 898 52C1171.93 52 1394 156.318 1394 285Z" fill="#A0D283"/>
<path d="M1972 290.5C1972 450.939 1749.93 581 1476 581C1202.07 581 980 450.939 980 290.5C980 130.061 1202.07 0 1476 0C1749.93 0 1972 130.061 1972 290.5Z" fill="#93C47A"/>
</svg>
